<svg xmlns="http://www.w3.org/2000/svg" viewBox="0 0 64 64" width="64" height="64" role="img" aria-label="HonorBox">
  <!-- The org avatar: the same mark as the favicon and the lockup, reversed on
       an ink plate. GitHub crops avatars to a circle, so the mark is scaled to
       keep the foot's bottom corners inside the inscribed circle. -->
  <rect width="64" height="64" fill="#14120f"/>
  <g transform="translate(12.5546,12.5546) scale(0.810227)">
    <path fill="#f0ece5" d="M9,15H39A3,3 0 0 1 42,18V42H6V18A3,3 0 0 1 9,15ZM4.5,39H43.5A1.5,1.5 0 0 1 45,40.5V43.5A1.5,1.5 0 0 1 43.5,45H4.5A1.5,1.5 0 0 1 3,43.5V40.5A1.5,1.5 0 0 1 4.5,39ZM18,24A3,3 0 0 0 15,27A3,3 0 0 0 18,30H30A3,3 0 0 0 33,27A3,3 0 0 0 30,24H18Z"/>
    <path fill="#d9603c" d="M18.21,9.84A6.25,4.15 -22 0 1 29.79,5.16A6.25,4.15 -22 0 1 18.21,9.84Z"/>
  </g>
</svg>
